<?xml version="1.0" encoding="UTF-8" standalone="no"?>
<svg width="26px" height="65px" viewBox="0 0 26 65" version="1.1" xmlns="http://www.w3.org/2000/svg" xmlns:xlink="http://www.w3.org/1999/xlink" xmlns:sketch="http://www.bohemiancoding.com/sketch/ns">
    <!-- Generator: Sketch 3.3.3 (12081) - http://www.bohemiancoding.com/sketch -->
    <title>icon-temperature</title>
    <desc>Created with Sketch.</desc>
    <defs></defs>
    <g id="Page-1" stroke="none" stroke-width="1" fill="none" fill-rule="evenodd" sketch:type="MSPage">
        <g id="icon-temperature" sketch:type="MSLayerGroup">
            <g id="Page-1" sketch:type="MSShapeGroup">
                <g id="Imported-Layers-+-Imported-Layers-Copy-+-Oval-1">
                    <path d="M21.0375645,7.64857881 C20.748629,3.38005168 17.1532903,0 12.7553065,0 C8.35732258,0 4.76198387,3.38005168 4.49129032,7.64857881 L4.47304839,42.6744186 C1.75520968,45 0,48.4575711 0,52.3213437 C0,59.3235142 5.75774194,65 12.8601452,65 C19.9625484,65 25.7202903,59.3235142 25.7202903,52.3213437 C25.7202903,48.3810853 23.8973548,44.8610853 21.0375645,42.5357106 L21.0375645,7.64857881 L21.0375645,7.64857881 Z" id="Imported-Layers" fill="#57BAEC"></path>
                    <path d="M18.0158677,8.62234508 C17.8317879,5.88695818 15.5412092,3.72093023 12.7392678,3.72093023 C9.93732648,3.72093023 7.64674779,5.88695818 7.4742898,8.62234508 L7.46266792,46.3520822 C7.46266792,46.3520822 4.61290323,48.2794331 4.61290323,52.534091 C4.61290323,57.0212701 8.28114204,60.6589147 12.8060602,60.6589147 C17.3309784,60.6589147 20.9992172,57.0212701 20.9992172,52.534091 C20.9992172,50.0090676 19.8378309,47.753357 18.0158677,46.2631944 L18.0158677,8.62234508 L18.0158677,8.62234508 Z" id="Imported-Layers-Copy" fill="#FFFFFF"></path>
                    <path d="M15.3064516,48.2993845 C16.810597,49.1572064 17.8225806,50.7605399 17.8225806,52.5968992 C17.8225806,55.3369166 15.569562,57.5581395 12.7903226,57.5581395 C10.0110832,57.5581395 7.75806452,55.3369166 7.75806452,52.5968992 C7.75806452,50.7605399 8.77004817,49.1572064 10.2741935,48.2993845 L10.2741935,30.3902397 C10.2741935,29.0002192 11.3910147,27.873385 12.7903226,27.873385 C14.1799423,27.873385 15.3064516,28.9968668 15.3064516,30.3902397 L15.3064516,48.2993845 L15.3064516,48.2993845 Z" id="Oval-1" fill-opacity="0.6" fill="#57BAEC"></path>
                </g>
            </g>
        </g>
    </g>
</svg>