<?xml version="1.0" encoding="UTF-8" standalone="no"?>
<svg width="59px" height="56px" viewBox="0 0 59 56" version="1.1" xmlns="http://www.w3.org/2000/svg" xmlns:xlink="http://www.w3.org/1999/xlink" xmlns:sketch="http://www.bohemiancoding.com/sketch/ns">
    <!-- Generator: Sketch 3.3.3 (12081) - http://www.bohemiancoding.com/sketch -->
    <title>icon-heart-rate</title>
    <desc>Created with Sketch.</desc>
    <defs></defs>
    <g id="Page-1" stroke="none" stroke-width="1" fill="none" fill-rule="evenodd" sketch:type="MSPage">
        <g id="icon-heart-rate" sketch:type="MSLayerGroup" fill="#F77B6B">
            <g id="Page-1" sketch:type="MSShapeGroup">
                <path d="M48.528,26.963 C48.401,26.963 48.277,26.948 48.154,26.924 C48.115,26.917 48.078,26.904 48.04,26.894 C47.96,26.874 47.881,26.852 47.804,26.821 C47.759,26.804 47.717,26.784 47.674,26.763 C47.607,26.731 47.542,26.696 47.479,26.657 C47.438,26.632 47.399,26.606 47.361,26.578 C47.299,26.533 47.241,26.484 47.184,26.433 C47.152,26.403 47.119,26.375 47.088,26.343 C47.031,26.283 46.979,26.217 46.929,26.15 C46.907,26.12 46.882,26.091 46.861,26.06 C46.807,25.978 46.762,25.891 46.72,25.801 C46.71,25.778 46.695,25.757 46.686,25.734 C46.641,25.627 46.604,25.514 46.578,25.396 L46.572,25.37 C46.572,25.368 46.571,25.365 46.571,25.362 L45.156,18.996 L41.255,31.675 C41.249,31.695 41.235,31.71 41.228,31.729 C41.167,31.91 41.085,32.083 40.975,32.239 C40.96,32.26 40.942,32.277 40.926,32.297 C40.823,32.432 40.702,32.553 40.565,32.66 C40.54,32.679 40.518,32.7 40.493,32.718 C40.368,32.806 40.234,32.885 40.086,32.944 C40.059,32.955 40.032,32.958 40.005,32.968 C39.971,32.98 39.937,32.988 39.902,32.998 C39.717,33.052 39.53,33.087 39.344,33.087 C39.144,33.087 38.947,33.057 38.759,32.999 C38.758,32.999 38.757,32.999 38.755,32.998 C38.585,32.946 38.431,32.867 38.287,32.776 C38.252,32.754 38.219,32.731 38.185,32.707 C38.049,32.609 37.923,32.5 37.817,32.374 C37.809,32.365 37.801,32.359 37.794,32.351 C37.679,32.209 37.591,32.05 37.518,31.883 C37.509,31.864 37.494,31.85 37.487,31.83 L33.389,21.586 L32.053,25.595 C32.048,25.611 32.036,25.623 32.03,25.639 C31.966,25.815 31.882,25.98 31.774,26.129 C31.753,26.159 31.729,26.183 31.706,26.211 C31.601,26.341 31.483,26.458 31.349,26.558 C31.331,26.572 31.316,26.588 31.297,26.602 C31.151,26.704 30.988,26.781 30.817,26.841 C30.779,26.855 30.742,26.866 30.703,26.877 C30.531,26.926 30.353,26.961 30.166,26.961 C30.162,26.961 30.159,26.963 30.156,26.963 C30.155,26.963 30.154,26.962 30.153,26.962 L13.781,26.962 C12.676,26.962 11.781,26.067 11.781,24.962 C11.781,23.858 12.676,22.962 13.781,22.962 L28.714,22.962 L31.321,15.143 C31.33,15.117 31.344,15.095 31.354,15.07 C31.379,15.003 31.409,14.939 31.442,14.875 C31.469,14.821 31.496,14.767 31.528,14.716 C31.565,14.657 31.607,14.603 31.65,14.548 C31.686,14.501 31.722,14.454 31.763,14.411 C31.812,14.359 31.865,14.312 31.92,14.265 C31.963,14.228 32.006,14.191 32.053,14.158 C32.11,14.116 32.171,14.08 32.234,14.044 C32.287,14.014 32.34,13.985 32.395,13.96 C32.423,13.947 32.447,13.93 32.476,13.918 C32.513,13.903 32.552,13.898 32.59,13.885 C32.648,13.866 32.707,13.848 32.767,13.834 C32.837,13.818 32.906,13.806 32.976,13.797 C33.034,13.79 33.092,13.785 33.151,13.783 C33.223,13.78 33.295,13.782 33.366,13.787 C33.424,13.792 33.482,13.798 33.54,13.808 C33.613,13.819 33.683,13.836 33.754,13.856 C33.786,13.865 33.819,13.867 33.851,13.877 C33.876,13.886 33.897,13.9 33.922,13.909 C33.989,13.935 34.053,13.965 34.118,13.998 C34.173,14.025 34.227,14.053 34.279,14.086 C34.335,14.121 34.387,14.16 34.44,14.201 C34.49,14.24 34.541,14.279 34.587,14.323 C34.633,14.367 34.675,14.415 34.718,14.463 C34.761,14.513 34.804,14.563 34.843,14.617 C34.878,14.667 34.909,14.719 34.94,14.772 C34.976,14.835 35.01,14.897 35.039,14.963 C35.05,14.987 35.066,15.007 35.075,15.032 L39.097,25.086 L43.557,10.593 C43.564,10.569 43.577,10.549 43.585,10.526 C43.609,10.458 43.637,10.395 43.668,10.331 C43.694,10.273 43.721,10.217 43.753,10.164 C43.785,10.108 43.822,10.058 43.861,10.006 C43.899,9.953 43.937,9.9 43.981,9.851 C44.023,9.804 44.07,9.762 44.116,9.718 C44.164,9.675 44.21,9.631 44.261,9.593 C44.313,9.553 44.368,9.519 44.424,9.485 C44.479,9.452 44.533,9.418 44.591,9.39 C44.647,9.363 44.705,9.341 44.764,9.318 C44.83,9.293 44.896,9.27 44.965,9.252 C44.989,9.246 45.011,9.234 45.035,9.229 C45.071,9.221 45.108,9.222 45.145,9.216 C45.213,9.205 45.28,9.195 45.35,9.191 C45.42,9.187 45.488,9.188 45.558,9.19 C45.616,9.193 45.674,9.197 45.732,9.205 C45.81,9.215 45.885,9.231 45.961,9.251 C45.992,9.258 46.025,9.26 46.057,9.27 C46.079,9.276 46.097,9.288 46.119,9.295 C46.191,9.32 46.259,9.351 46.327,9.383 C46.38,9.409 46.433,9.433 46.483,9.463 C46.541,9.497 46.595,9.537 46.65,9.577 C46.7,9.614 46.751,9.65 46.797,9.692 C46.846,9.735 46.889,9.784 46.934,9.832 C46.977,9.878 47.019,9.924 47.057,9.974 C47.096,10.025 47.13,10.081 47.164,10.136 C47.198,10.191 47.232,10.247 47.261,10.306 C47.287,10.359 47.308,10.415 47.33,10.473 C47.356,10.542 47.381,10.61 47.399,10.682 C47.405,10.705 47.416,10.725 47.421,10.748 L50.135,22.962 L57.354,22.962 C57.894,21.274 58.187,19.477 58.187,17.61 C58.187,7.884 50.303,0 40.578,0 C36.185,0 32.178,1.619 29.093,4.279 C26.009,1.619 22.002,0 17.609,0 C7.883,0 0,7.884 0,17.61 C0,21.305 1.142,24.731 3.088,27.563 L29.093,55.126 L55.125,27.563 L55.099,27.563 C55.234,27.368 55.354,27.163 55.481,26.962 L48.533,26.962 C48.531,26.962 48.53,26.963 48.528,26.963" id="Imported-Layers"></path>
            </g>
        </g>
    </g>
</svg>