<?xml version="1.0" encoding="UTF-8" standalone="no"?>
<svg width="28px" height="28px" viewBox="0 0 28 28" version="1.1" xmlns="http://www.w3.org/2000/svg" xmlns:xlink="http://www.w3.org/1999/xlink" xmlns:sketch="http://www.bohemiancoding.com/sketch/ns">
    <!-- Generator: Sketch 3.3.3 (12081) - http://www.bohemiancoding.com/sketch -->
    <title>icon-scale</title>
    <desc>Created with Sketch.</desc>
    <defs></defs>
    <g id="Page-1" stroke="none" stroke-width="1" fill="none" fill-rule="evenodd" sketch:type="MSPage">
        <g id="icon-scale" sketch:type="MSLayerGroup" fill-opacity="0.832314312" fill="#9056A6">
            <g id="Page-1" sketch:type="MSShapeGroup">
                <path d="M21.4252203,0 L6.18942373,0 C2.77105085,0 0,2.77105085 0,6.18942373 L0,21.4252203 C0,24.8435932 2.77105085,27.6146441 6.18942373,27.6146441 L21.4252203,27.6146441 C24.8435932,27.6146441 27.6146441,24.8435932 27.6146441,21.4252203 L27.6146441,6.18942373 C27.6146441,2.77105085 24.8435932,0 21.4252203,0 L21.4252203,0 L21.4252203,0 Z M7.26718644,5.17762712 C7.26718644,4.32528814 7.95864407,3.63383051 8.81098305,3.63383051 L18.8031864,3.63383051 C19.6564746,3.63383051 20.3474576,4.32528814 20.3474576,5.17762712 L20.3474576,8.62969492 C20.3474576,9.48250847 19.6564746,10.1739661 18.8031864,10.1739661 L12.8728814,10.1739661 C12.8728814,10.1739661 12.4543051,6.43667797 11.9384407,6.43667797 C11.4225763,6.43667797 11.0044746,10.1739661 11.0044746,10.1739661 L8.81098305,10.1739661 C7.95864407,10.1739661 7.26718644,9.48250847 7.26718644,8.62969492 L7.26718644,5.17762712 L7.26718644,5.17762712 Z" id="Imported-Layers"></path>
            </g>
        </g>
    </g>
</svg>