<?xml version="1.0" encoding="UTF-8" standalone="no"?>
<svg width="38px" height="60px" viewBox="0 0 38 60" version="1.1" xmlns="http://www.w3.org/2000/svg" xmlns:xlink="http://www.w3.org/1999/xlink" xmlns:sketch="http://www.bohemiancoding.com/sketch/ns">
    <!-- Generator: Sketch 3.3.3 (12081) - http://www.bohemiancoding.com/sketch -->
    <title>Imported-Layers</title>
    <desc>Created with Sketch.</desc>
    <defs></defs>
    <g id="Page-1" stroke="none" stroke-width="1" fill="none" fill-rule="evenodd" sketch:type="MSPage">
        <g id="icon-calories" sketch:type="MSLayerGroup" transform="translate(-1.000000, 0.000000)" fill="#FC754B">
            <g id="Page-1" sketch:type="MSShapeGroup">
                <path d="M18.0673631,12.0687297 C15.2249056,18.2464356 0.446513863,28.1300238 1.01602844,42.3346708 C1.58383788,56.5393179 13.5358798,59.6080726 20.2652807,59.6655962 C26.1791327,59.7161483 39.0000008,54.3024037 39,42.1512162 C38.9999992,30.0000288 34.2824088,30.4036333 28.5829212,22.7231414 C28.5829212,22.7231414 32.1405653,32.9068071 22.8980062,32.1434944 C22.8980062,32.1434944 15.2249056,29.6716708 20.2652801,21.2741414 C29.5616678,5.78170026 19.7162271,0.3340532 19.7162271,0.3340532 C19.7162271,0.3340532 20.9081154,5.89102379 18.0673631,12.0687297 L18.0673631,12.0687297 Z M7.54739893,41.5619944 C7.54739893,35.7378617 11.7169027,29.5178767 11.7169027,29.5178767 C13.7308973,35.0767003 14.821709,38.0194279 20.2872796,39.2534867 C21.5902495,39.5481044 23.2148479,39.6553422 24.312449,39.6553422 C28.2955342,39.6553422 31.4369344,35.7378617 31.4369344,35.7378617 C32.5602945,50.8289271 24.790887,53.0589076 18.1759416,53.0589076 C10.106609,52.6931571 7.54739894,47.386127 7.54739893,41.5619944 L7.54739893,41.5619944 Z" id="Imported-Layers"></path>
            </g>
        </g>
    </g>
</svg>