<?xml version="1.0" encoding="UTF-8" standalone="no"?>
<svg width="75px" height="75px" viewBox="0 0 75 75" version="1.1" xmlns="http://www.w3.org/2000/svg" xmlns:xlink="http://www.w3.org/1999/xlink" xmlns:sketch="http://www.bohemiancoding.com/sketch/ns">
    <!-- Generator: Sketch 3.3.3 (12081) - http://www.bohemiancoding.com/sketch -->
    <title>icon-blood-pressure</title>
    <desc>Created with Sketch.</desc>
    <defs></defs>
    <g id="Page-1" stroke="none" stroke-width="1" fill="none" fill-rule="evenodd" sketch:type="MSPage">
        <g id="icon-blood-pressure" sketch:type="MSLayerGroup">
            <g id="Page-1" sketch:type="MSShapeGroup">
                <g id="Imported-Layers">
                    <path d="M36.772,0.292 L39.982,0.292 C40.018,0.326 40.048,0.381 40.088,0.39 C46.879,1.826 50.794,5.881 51.52,12.88 C51.56,13.256 51.809,13.773 52.113,13.933 C53.91,14.877 54.421,16.424 54.402,18.306 C54.376,20.932 54.396,23.558 54.396,26.184 C54.396,28.954 54.396,28.949 57.091,29.026 C57.673,29.043 58.253,29.117 58.834,29.162 C66.937,29.792 72.062,38.969 68.306,46.168 C65.911,50.756 62.043,52.874 56.916,52.868 C45.926,52.855 34.935,52.843 23.946,52.894 C22.713,52.899 21.393,53.099 20.269,53.576 C17.675,54.679 16.272,57.604 16.807,60.306 C17.425,63.426 19.733,65.424 23.118,65.468 C29.244,65.548 35.372,65.513 41.499,65.464 C41.957,65.46 42.573,65.08 42.841,64.688 C44.309,62.526 46.234,61.256 48.901,61.258 C50.604,61.259 52.309,61.205 54.006,61.295 C58.298,61.519 61.269,65.722 60.158,69.88 C59.416,72.663 57.403,74.095 54.866,75.003 L47.57,75.003 C46.181,74.085 44.665,73.304 43.451,72.194 C42.764,71.566 42.261,71.125 41.285,71.132 C35.402,71.174 29.518,71.194 23.634,71.142 C15.58,71.07 10.009,64.705 11.288,57.114 C12.263,51.329 17.192,47.301 23.449,47.282 C34.438,47.251 45.427,47.274 56.416,47.272 C57,47.272 57.586,47.285 58.165,47.23 C61.27,46.931 63.726,44.434 63.906,41.414 C64.094,38.29 62.1,35.46 59.066,34.86 C57.615,34.572 56.084,34.686 54.396,34.61 C54.396,35.704 54.401,36.615 54.394,37.526 C54.37,40.898 52.95,42.347 49.629,42.348 C36.597,42.353 23.565,42.353 10.534,42.349 C7.202,42.347 5.758,40.903 5.752,37.552 C5.741,31.134 5.741,24.715 5.752,18.297 C5.758,14.983 7.258,13.484 10.558,13.476 C14.885,13.464 19.213,13.473 23.541,13.473 L25.07,13.473 C25.174,12.888 25.269,12.509 25.306,12.124 C25.665,8.446 27.367,5.525 30.198,3.184 C32.128,1.586 34.428,0.909 36.772,0.292 L36.772,0.292 L36.772,0.292 Z M38.333,23.423 C43.601,23.442 47.871,19.212 47.908,13.94 C47.945,8.668 43.737,4.389 38.459,4.332 C33.122,4.275 28.809,8.547 28.815,13.887 C28.821,19.166 33.051,23.404 38.333,23.423 L38.333,23.423 L38.333,23.423 Z" id="Fill-1" fill="#75C181"></path>
                    <path d="M54.866,75.003 C57.403,74.095 59.416,72.663 60.158,69.88 C61.269,65.722 58.298,61.519 54.006,61.295 C52.309,61.205 50.604,61.259 48.901,61.258 C46.234,61.256 44.309,62.526 42.841,64.688 C42.573,65.08 41.957,65.46 41.499,65.464 C35.372,65.513 29.244,65.548 23.118,65.468 C19.733,65.424 17.425,63.426 16.807,60.306 C16.272,57.604 17.675,54.679 20.269,53.576 C21.393,53.099 22.713,52.899 23.946,52.894 C34.935,52.843 45.926,52.855 56.916,52.868 C62.043,52.874 65.911,50.756 68.306,46.168 C72.062,38.969 66.937,29.792 58.834,29.162 C58.253,29.117 57.673,29.043 57.091,29.026 C54.396,28.949 54.396,28.954 54.396,26.184 C54.396,23.558 54.376,20.932 54.402,18.306 C54.421,16.424 53.91,14.877 52.113,13.933 C51.809,13.773 51.56,13.256 51.52,12.88 C50.794,5.881 46.879,1.826 40.088,0.39 C40.048,0.381 40.018,0.326 39.982,0.292 L75.003,0.292 L75.003,75.003 L54.866,75.003" id="Fill-2" fill="#FFFFFF"></path>
                    <path d="M36.772,0.292 C34.428,0.909 32.128,1.586 30.198,3.184 C27.367,5.525 25.665,8.446 25.306,12.124 C25.269,12.509 25.174,12.888 25.07,13.473 L23.541,13.473 C19.213,13.473 14.885,13.464 10.558,13.476 C7.258,13.484 5.758,14.983 5.752,18.297 C5.741,24.715 5.741,31.134 5.752,37.552 C5.758,40.903 7.202,42.347 10.534,42.349 C23.565,42.353 36.597,42.353 49.629,42.348 C52.95,42.347 54.37,40.898 54.394,37.526 C54.401,36.615 54.396,35.704 54.396,34.61 C56.084,34.686 57.615,34.572 59.066,34.86 C62.1,35.46 64.094,38.29 63.906,41.414 C63.726,44.434 61.27,46.931 58.165,47.23 C57.586,47.285 57,47.272 56.416,47.272 C45.427,47.274 34.438,47.251 23.449,47.282 C17.192,47.301 12.263,51.329 11.288,57.114 C10.009,64.705 15.58,71.07 23.634,71.142 C29.518,71.194 35.402,71.174 41.285,71.132 C42.261,71.125 42.764,71.566 43.451,72.194 C44.665,73.304 46.181,74.085 47.57,75.003 L0.292,75.003 L0.292,0.292 L36.772,0.292" id="Fill-3" fill="#FFFFFF"></path>
                    <path d="M38.333,23.423 C33.051,23.404 28.821,19.166 28.815,13.887 C28.809,8.547 33.122,4.275 38.459,4.332 C43.737,4.389 47.945,8.668 47.908,13.94 C47.871,19.212 43.601,23.442 38.333,23.423 L38.333,23.423 L38.333,23.423 Z M43.079,7.464 C40.931,9.425 39.033,11.059 37.279,12.833 C36.877,13.24 36.681,14.259 36.906,14.767 C37.129,15.267 38.035,15.776 38.592,15.726 C39.144,15.676 39.819,15.03 40.109,14.473 C40.611,13.511 40.802,12.391 41.226,11.381 C41.741,10.149 42.363,8.962 43.079,7.464 L43.079,7.464 L43.079,7.464 Z" id="Fill-4" fill="#FFFFFF"></path>
                    <path d="M43.079,7.464 C42.363,8.962 41.741,10.149 41.226,11.381 C40.802,12.391 40.611,13.511 40.109,14.473 C39.819,15.03 39.144,15.676 38.592,15.726 C38.035,15.776 37.129,15.267 36.906,14.767 C36.681,14.259 36.877,13.24 37.279,12.833 C39.033,11.059 40.931,9.425 43.079,7.464" id="Fill-5" fill="#75C181"></path>
                </g>
            </g>
        </g>
    </g>
</svg>